<mxfile host="app.diagrams.net" modified="2024-03-25T13:31:39.417Z" agent="Mozilla/5.0 (Windows NT 10.0; Win64; x64) AppleWebKit/537.36 (KHTML, like Gecko) Chrome/123.0.0.0 Safari/537.36" etag="qXuawUdX12Ae_ms8WTIM" version="24.1.0" type="device">
  <diagram name="Page-1" id="c1PpovzWclh6VaPJDDKc">
    <mxGraphModel dx="1418" dy="888" grid="1" gridSize="10" guides="1" tooltips="1" connect="1" arrows="1" fold="1" page="1" pageScale="1" pageWidth="827" pageHeight="1169" math="0" shadow="0">
      <root>
        <mxCell id="0" />
        <mxCell id="1" parent="0" />
        <mxCell id="9Q65-ZkpS5YPYeOt8dSL-1" value="" style="rounded=1;whiteSpace=wrap;html=1;fillColor=#f5f9ff;fontSize=12;strokeColor=#6c8ebf;labelPosition=center;verticalLabelPosition=middle;align=center;verticalAlign=middle;" vertex="1" parent="1">
          <mxGeometry x="60" y="140" width="850" height="590" as="geometry" />
        </mxCell>
        <mxCell id="9Q65-ZkpS5YPYeOt8dSL-2" value="&lt;font style=&quot;font-size: 22px;&quot;&gt;Kubernetes Cluster&lt;/font&gt;" style="text;html=1;align=center;verticalAlign=middle;whiteSpace=wrap;rounded=0;fontStyle=1" vertex="1" parent="1">
          <mxGeometry x="650" y="150" width="215" height="40" as="geometry" />
        </mxCell>
        <mxCell id="9Q65-ZkpS5YPYeOt8dSL-3" value="" style="rounded=1;whiteSpace=wrap;html=1;fillColor=#fffcf5;strokeColor=#d6b656;" vertex="1" parent="1">
          <mxGeometry x="220" y="200" width="530" height="220" as="geometry" />
        </mxCell>
        <mxCell id="9Q65-ZkpS5YPYeOt8dSL-8" value="&lt;b style=&quot;font-size: 14px;&quot;&gt;&lt;font style=&quot;font-size: 14px;&quot;&gt;Master Node&lt;/font&gt;&lt;/b&gt;&lt;div&gt;&lt;div style=&quot;font-size: 14px;&quot;&gt;&lt;b style=&quot;&quot;&gt;&lt;font style=&quot;font-size: 14px;&quot;&gt;(Control Panel)&lt;/font&gt;&lt;/b&gt;&lt;/div&gt;&lt;/div&gt;" style="text;html=1;align=center;verticalAlign=middle;whiteSpace=wrap;rounded=0;" vertex="1" parent="1">
          <mxGeometry x="625" y="210" width="120" height="30" as="geometry" />
        </mxCell>
        <mxCell id="9Q65-ZkpS5YPYeOt8dSL-9" value="" style="rounded=1;whiteSpace=wrap;html=1;fillColor=#f5fff5;strokeColor=#82b366;" vertex="1" parent="1">
          <mxGeometry x="85" y="450" width="375" height="230" as="geometry" />
        </mxCell>
        <mxCell id="9Q65-ZkpS5YPYeOt8dSL-11" value="&lt;b&gt;&lt;font style=&quot;font-size: 14px;&quot;&gt;Worker Node 1&lt;/font&gt;&lt;/b&gt;" style="text;html=1;align=center;verticalAlign=middle;whiteSpace=wrap;rounded=0;" vertex="1" parent="1">
          <mxGeometry x="320" y="460" width="120" height="30" as="geometry" />
        </mxCell>
        <mxCell id="9Q65-ZkpS5YPYeOt8dSL-13" value="&lt;b&gt;Kubelet&lt;/b&gt;" style="rounded=1;whiteSpace=wrap;html=1;" vertex="1" parent="1">
          <mxGeometry x="232.5" y="460" width="80" height="40" as="geometry" />
        </mxCell>
        <mxCell id="9Q65-ZkpS5YPYeOt8dSL-14" value="" style="rounded=1;whiteSpace=wrap;html=1;" vertex="1" parent="1">
          <mxGeometry x="280" y="600" width="160" height="70" as="geometry" />
        </mxCell>
        <mxCell id="9Q65-ZkpS5YPYeOt8dSL-15" value="&lt;b&gt;Services&lt;/b&gt;" style="text;html=1;align=center;verticalAlign=middle;whiteSpace=wrap;rounded=0;" vertex="1" parent="1">
          <mxGeometry x="380" y="600" width="60" height="30" as="geometry" />
        </mxCell>
        <mxCell id="9Q65-ZkpS5YPYeOt8dSL-16" value="&lt;b&gt;kube-proxy&lt;/b&gt;" style="rounded=1;whiteSpace=wrap;html=1;" vertex="1" parent="1">
          <mxGeometry x="290" y="630" width="140" height="30" as="geometry" />
        </mxCell>
        <mxCell id="9Q65-ZkpS5YPYeOt8dSL-34" value="" style="group" vertex="1" connectable="0" parent="1">
          <mxGeometry x="100" y="520" width="130" height="60" as="geometry" />
        </mxCell>
        <mxCell id="9Q65-ZkpS5YPYeOt8dSL-22" value="" style="rounded=1;whiteSpace=wrap;html=1;" vertex="1" parent="9Q65-ZkpS5YPYeOt8dSL-34">
          <mxGeometry width="120" height="60" as="geometry" />
        </mxCell>
        <mxCell id="9Q65-ZkpS5YPYeOt8dSL-23" value="&lt;b&gt;Pod&lt;/b&gt;" style="text;html=1;align=center;verticalAlign=middle;whiteSpace=wrap;rounded=0;" vertex="1" parent="9Q65-ZkpS5YPYeOt8dSL-34">
          <mxGeometry x="70" width="60" height="30" as="geometry" />
        </mxCell>
        <mxCell id="9Q65-ZkpS5YPYeOt8dSL-28" value="" style="shape=image;imageAspect=0;aspect=fixed;verticalLabelPosition=bottom;verticalAlign=top;image=https://external-content.duckduckgo.com/iu/?u=https%3A%2F%2Ftse3.mm.bing.net%2Fth%3Fid%3DOIP.LyndAzyZU5fdUKOWdkpSxwAAAA%26pid%3DApi&amp;f=1&amp;ipt=9c02ed5467b465faba6fe92957dbc75421283cd3b5f137815d17ff7c9f592d1e&amp;ipo=images;" vertex="1" parent="9Q65-ZkpS5YPYeOt8dSL-34">
          <mxGeometry x="14" y="20" width="30" height="30" as="geometry" />
        </mxCell>
        <mxCell id="9Q65-ZkpS5YPYeOt8dSL-29" value="" style="shape=image;imageAspect=0;aspect=fixed;verticalLabelPosition=bottom;verticalAlign=top;image=https://external-content.duckduckgo.com/iu/?u=https%3A%2F%2Ftse3.mm.bing.net%2Fth%3Fid%3DOIP.LyndAzyZU5fdUKOWdkpSxwAAAA%26pid%3DApi&amp;f=1&amp;ipt=9c02ed5467b465faba6fe92957dbc75421283cd3b5f137815d17ff7c9f592d1e&amp;ipo=images;" vertex="1" parent="9Q65-ZkpS5YPYeOt8dSL-34">
          <mxGeometry x="80" y="20" width="30" height="30" as="geometry" />
        </mxCell>
        <mxCell id="9Q65-ZkpS5YPYeOt8dSL-30" value="&lt;b&gt;...&lt;/b&gt;" style="text;html=1;align=center;verticalAlign=middle;whiteSpace=wrap;rounded=0;" vertex="1" parent="9Q65-ZkpS5YPYeOt8dSL-34">
          <mxGeometry x="40" y="20" width="40" height="30" as="geometry" />
        </mxCell>
        <mxCell id="9Q65-ZkpS5YPYeOt8dSL-35" value="" style="group" vertex="1" connectable="0" parent="1">
          <mxGeometry x="320" y="520" width="130" height="60" as="geometry" />
        </mxCell>
        <mxCell id="9Q65-ZkpS5YPYeOt8dSL-36" value="" style="rounded=1;whiteSpace=wrap;html=1;" vertex="1" parent="9Q65-ZkpS5YPYeOt8dSL-35">
          <mxGeometry width="120" height="60" as="geometry" />
        </mxCell>
        <mxCell id="9Q65-ZkpS5YPYeOt8dSL-37" value="&lt;b&gt;Pod&lt;/b&gt;" style="text;html=1;align=center;verticalAlign=middle;whiteSpace=wrap;rounded=0;" vertex="1" parent="9Q65-ZkpS5YPYeOt8dSL-35">
          <mxGeometry x="70" width="60" height="30" as="geometry" />
        </mxCell>
        <mxCell id="9Q65-ZkpS5YPYeOt8dSL-38" value="" style="shape=image;imageAspect=0;aspect=fixed;verticalLabelPosition=bottom;verticalAlign=top;image=https://external-content.duckduckgo.com/iu/?u=https%3A%2F%2Ftse3.mm.bing.net%2Fth%3Fid%3DOIP.LyndAzyZU5fdUKOWdkpSxwAAAA%26pid%3DApi&amp;f=1&amp;ipt=9c02ed5467b465faba6fe92957dbc75421283cd3b5f137815d17ff7c9f592d1e&amp;ipo=images;" vertex="1" parent="9Q65-ZkpS5YPYeOt8dSL-35">
          <mxGeometry x="14" y="20" width="30" height="30" as="geometry" />
        </mxCell>
        <mxCell id="9Q65-ZkpS5YPYeOt8dSL-39" value="" style="shape=image;imageAspect=0;aspect=fixed;verticalLabelPosition=bottom;verticalAlign=top;image=https://external-content.duckduckgo.com/iu/?u=https%3A%2F%2Ftse3.mm.bing.net%2Fth%3Fid%3DOIP.LyndAzyZU5fdUKOWdkpSxwAAAA%26pid%3DApi&amp;f=1&amp;ipt=9c02ed5467b465faba6fe92957dbc75421283cd3b5f137815d17ff7c9f592d1e&amp;ipo=images;" vertex="1" parent="9Q65-ZkpS5YPYeOt8dSL-35">
          <mxGeometry x="80" y="20" width="30" height="30" as="geometry" />
        </mxCell>
        <mxCell id="9Q65-ZkpS5YPYeOt8dSL-40" value="&lt;b&gt;...&lt;/b&gt;" style="text;html=1;align=center;verticalAlign=middle;whiteSpace=wrap;rounded=0;" vertex="1" parent="9Q65-ZkpS5YPYeOt8dSL-35">
          <mxGeometry x="40" y="20" width="40" height="30" as="geometry" />
        </mxCell>
        <mxCell id="9Q65-ZkpS5YPYeOt8dSL-42" value="" style="group" vertex="1" connectable="0" parent="1">
          <mxGeometry x="290" y="520" width="130" height="60" as="geometry" />
        </mxCell>
        <mxCell id="9Q65-ZkpS5YPYeOt8dSL-43" value="" style="rounded=1;whiteSpace=wrap;html=1;" vertex="1" parent="9Q65-ZkpS5YPYeOt8dSL-42">
          <mxGeometry width="120" height="60" as="geometry" />
        </mxCell>
        <mxCell id="9Q65-ZkpS5YPYeOt8dSL-44" value="&lt;b&gt;Pod&lt;/b&gt;" style="text;html=1;align=center;verticalAlign=middle;whiteSpace=wrap;rounded=0;" vertex="1" parent="9Q65-ZkpS5YPYeOt8dSL-42">
          <mxGeometry x="70" width="60" height="30" as="geometry" />
        </mxCell>
        <mxCell id="9Q65-ZkpS5YPYeOt8dSL-45" value="" style="shape=image;imageAspect=0;aspect=fixed;verticalLabelPosition=bottom;verticalAlign=top;image=https://external-content.duckduckgo.com/iu/?u=https%3A%2F%2Ftse3.mm.bing.net%2Fth%3Fid%3DOIP.LyndAzyZU5fdUKOWdkpSxwAAAA%26pid%3DApi&amp;f=1&amp;ipt=9c02ed5467b465faba6fe92957dbc75421283cd3b5f137815d17ff7c9f592d1e&amp;ipo=images;" vertex="1" parent="9Q65-ZkpS5YPYeOt8dSL-42">
          <mxGeometry x="14" y="20" width="30" height="30" as="geometry" />
        </mxCell>
        <mxCell id="9Q65-ZkpS5YPYeOt8dSL-46" value="" style="shape=image;imageAspect=0;aspect=fixed;verticalLabelPosition=bottom;verticalAlign=top;image=https://external-content.duckduckgo.com/iu/?u=https%3A%2F%2Ftse3.mm.bing.net%2Fth%3Fid%3DOIP.LyndAzyZU5fdUKOWdkpSxwAAAA%26pid%3DApi&amp;f=1&amp;ipt=9c02ed5467b465faba6fe92957dbc75421283cd3b5f137815d17ff7c9f592d1e&amp;ipo=images;" vertex="1" parent="9Q65-ZkpS5YPYeOt8dSL-42">
          <mxGeometry x="80" y="20" width="30" height="30" as="geometry" />
        </mxCell>
        <mxCell id="9Q65-ZkpS5YPYeOt8dSL-47" value="&lt;b&gt;...&lt;/b&gt;" style="text;html=1;align=center;verticalAlign=middle;whiteSpace=wrap;rounded=0;" vertex="1" parent="9Q65-ZkpS5YPYeOt8dSL-42">
          <mxGeometry x="40" y="20" width="40" height="30" as="geometry" />
        </mxCell>
        <mxCell id="9Q65-ZkpS5YPYeOt8dSL-48" value="" style="group" vertex="1" connectable="0" parent="9Q65-ZkpS5YPYeOt8dSL-42">
          <mxGeometry x="-36" width="130" height="60" as="geometry" />
        </mxCell>
        <mxCell id="9Q65-ZkpS5YPYeOt8dSL-49" value="" style="rounded=1;whiteSpace=wrap;html=1;" vertex="1" parent="9Q65-ZkpS5YPYeOt8dSL-48">
          <mxGeometry width="120" height="60" as="geometry" />
        </mxCell>
        <mxCell id="9Q65-ZkpS5YPYeOt8dSL-50" value="&lt;b&gt;Pod&lt;/b&gt;" style="text;html=1;align=center;verticalAlign=middle;whiteSpace=wrap;rounded=0;" vertex="1" parent="9Q65-ZkpS5YPYeOt8dSL-48">
          <mxGeometry x="70" width="60" height="30" as="geometry" />
        </mxCell>
        <mxCell id="9Q65-ZkpS5YPYeOt8dSL-51" value="" style="shape=image;imageAspect=0;aspect=fixed;verticalLabelPosition=bottom;verticalAlign=top;image=https://external-content.duckduckgo.com/iu/?u=https%3A%2F%2Ftse3.mm.bing.net%2Fth%3Fid%3DOIP.LyndAzyZU5fdUKOWdkpSxwAAAA%26pid%3DApi&amp;f=1&amp;ipt=9c02ed5467b465faba6fe92957dbc75421283cd3b5f137815d17ff7c9f592d1e&amp;ipo=images;" vertex="1" parent="9Q65-ZkpS5YPYeOt8dSL-48">
          <mxGeometry x="14" y="20" width="30" height="30" as="geometry" />
        </mxCell>
        <mxCell id="9Q65-ZkpS5YPYeOt8dSL-52" value="" style="shape=image;imageAspect=0;aspect=fixed;verticalLabelPosition=bottom;verticalAlign=top;image=https://external-content.duckduckgo.com/iu/?u=https%3A%2F%2Ftse3.mm.bing.net%2Fth%3Fid%3DOIP.LyndAzyZU5fdUKOWdkpSxwAAAA%26pid%3DApi&amp;f=1&amp;ipt=9c02ed5467b465faba6fe92957dbc75421283cd3b5f137815d17ff7c9f592d1e&amp;ipo=images;" vertex="1" parent="9Q65-ZkpS5YPYeOt8dSL-48">
          <mxGeometry x="80" y="20" width="30" height="30" as="geometry" />
        </mxCell>
        <mxCell id="9Q65-ZkpS5YPYeOt8dSL-53" value="&lt;b&gt;...&lt;/b&gt;" style="text;html=1;align=center;verticalAlign=middle;whiteSpace=wrap;rounded=0;" vertex="1" parent="9Q65-ZkpS5YPYeOt8dSL-48">
          <mxGeometry x="40" y="20" width="40" height="30" as="geometry" />
        </mxCell>
        <mxCell id="9Q65-ZkpS5YPYeOt8dSL-54" value="&lt;b&gt;...&lt;/b&gt;" style="text;html=1;align=center;verticalAlign=middle;whiteSpace=wrap;rounded=0;" vertex="1" parent="9Q65-ZkpS5YPYeOt8dSL-48">
          <mxGeometry x="-46" y="20" width="60" height="30" as="geometry" />
        </mxCell>
        <mxCell id="9Q65-ZkpS5YPYeOt8dSL-58" value="&lt;b&gt;Volume&lt;/b&gt;" style="rounded=1;whiteSpace=wrap;html=1;" vertex="1" parent="1">
          <mxGeometry x="130" y="612.5" width="110" height="45" as="geometry" />
        </mxCell>
        <mxCell id="9Q65-ZkpS5YPYeOt8dSL-61" value="" style="endArrow=none;html=1;rounded=0;exitX=0.5;exitY=0;exitDx=0;exitDy=0;" edge="1" parent="1" source="9Q65-ZkpS5YPYeOt8dSL-58">
          <mxGeometry width="50" height="50" relative="1" as="geometry">
            <mxPoint x="480" y="480" as="sourcePoint" />
            <mxPoint x="160" y="580" as="targetPoint" />
          </mxGeometry>
        </mxCell>
        <mxCell id="9Q65-ZkpS5YPYeOt8dSL-62" value="" style="endArrow=none;html=1;rounded=0;exitX=0.5;exitY=0;exitDx=0;exitDy=0;entryX=0.5;entryY=1;entryDx=0;entryDy=0;" edge="1" parent="1" source="9Q65-ZkpS5YPYeOt8dSL-58" target="9Q65-ZkpS5YPYeOt8dSL-49">
          <mxGeometry width="50" height="50" relative="1" as="geometry">
            <mxPoint x="195" y="623" as="sourcePoint" />
            <mxPoint x="170" y="590" as="targetPoint" />
          </mxGeometry>
        </mxCell>
        <mxCell id="9Q65-ZkpS5YPYeOt8dSL-65" value="" style="endArrow=none;html=1;rounded=0;entryX=0.75;entryY=1;entryDx=0;entryDy=0;exitX=0.5;exitY=0;exitDx=0;exitDy=0;" edge="1" parent="1" source="9Q65-ZkpS5YPYeOt8dSL-58" target="9Q65-ZkpS5YPYeOt8dSL-49">
          <mxGeometry width="50" height="50" relative="1" as="geometry">
            <mxPoint x="480" y="480" as="sourcePoint" />
            <mxPoint x="530" y="430" as="targetPoint" />
          </mxGeometry>
        </mxCell>
        <mxCell id="9Q65-ZkpS5YPYeOt8dSL-66" value="" style="endArrow=classic;html=1;rounded=0;exitX=0.5;exitY=1;exitDx=0;exitDy=0;entryX=0;entryY=0;entryDx=0;entryDy=0;strokeColor=default;" edge="1" parent="1" source="9Q65-ZkpS5YPYeOt8dSL-13" target="9Q65-ZkpS5YPYeOt8dSL-23">
          <mxGeometry width="50" height="50" relative="1" as="geometry">
            <mxPoint x="300" y="440" as="sourcePoint" />
            <mxPoint x="350" y="390" as="targetPoint" />
          </mxGeometry>
        </mxCell>
        <mxCell id="9Q65-ZkpS5YPYeOt8dSL-68" value="" style="endArrow=classic;html=1;rounded=0;exitX=0.5;exitY=1;exitDx=0;exitDy=0;entryX=0.5;entryY=0;entryDx=0;entryDy=0;strokeColor=default;" edge="1" parent="1" source="9Q65-ZkpS5YPYeOt8dSL-13" target="9Q65-ZkpS5YPYeOt8dSL-49">
          <mxGeometry width="50" height="50" relative="1" as="geometry">
            <mxPoint x="283" y="510" as="sourcePoint" />
            <mxPoint x="180" y="530" as="targetPoint" />
          </mxGeometry>
        </mxCell>
        <mxCell id="9Q65-ZkpS5YPYeOt8dSL-69" value="" style="endArrow=classic;html=1;rounded=0;exitX=0.5;exitY=1;exitDx=0;exitDy=0;entryX=0.75;entryY=0;entryDx=0;entryDy=0;strokeColor=default;" edge="1" parent="1" source="9Q65-ZkpS5YPYeOt8dSL-13" target="9Q65-ZkpS5YPYeOt8dSL-50">
          <mxGeometry width="50" height="50" relative="1" as="geometry">
            <mxPoint x="370" y="400" as="sourcePoint" />
            <mxPoint x="411" y="420" as="targetPoint" />
          </mxGeometry>
        </mxCell>
        <mxCell id="9Q65-ZkpS5YPYeOt8dSL-70" value="" style="endArrow=classic;html=1;rounded=0;exitX=0.5;exitY=1;exitDx=0;exitDy=0;entryX=0.75;entryY=0;entryDx=0;entryDy=0;strokeColor=default;" edge="1" parent="1" source="9Q65-ZkpS5YPYeOt8dSL-13" target="9Q65-ZkpS5YPYeOt8dSL-44">
          <mxGeometry width="50" height="50" relative="1" as="geometry">
            <mxPoint x="380" y="400" as="sourcePoint" />
            <mxPoint x="421" y="420" as="targetPoint" />
          </mxGeometry>
        </mxCell>
        <mxCell id="9Q65-ZkpS5YPYeOt8dSL-71" value="" style="endArrow=classic;html=1;rounded=0;exitX=0.5;exitY=0;exitDx=0;exitDy=0;entryX=0.5;entryY=1;entryDx=0;entryDy=0;" edge="1" parent="1" source="9Q65-ZkpS5YPYeOt8dSL-14" target="9Q65-ZkpS5YPYeOt8dSL-22">
          <mxGeometry width="50" height="50" relative="1" as="geometry">
            <mxPoint x="303" y="530" as="sourcePoint" />
            <mxPoint x="344" y="550" as="targetPoint" />
          </mxGeometry>
        </mxCell>
        <mxCell id="9Q65-ZkpS5YPYeOt8dSL-72" value="" style="endArrow=classic;html=1;rounded=0;exitX=0.5;exitY=0;exitDx=0;exitDy=0;entryX=0.5;entryY=1;entryDx=0;entryDy=0;" edge="1" parent="1" source="9Q65-ZkpS5YPYeOt8dSL-14" target="9Q65-ZkpS5YPYeOt8dSL-49">
          <mxGeometry width="50" height="50" relative="1" as="geometry">
            <mxPoint x="313" y="540" as="sourcePoint" />
            <mxPoint x="360" y="600" as="targetPoint" />
          </mxGeometry>
        </mxCell>
        <mxCell id="9Q65-ZkpS5YPYeOt8dSL-73" value="" style="endArrow=classic;html=1;rounded=0;exitX=0.5;exitY=0;exitDx=0;exitDy=0;entryX=0.5;entryY=1;entryDx=0;entryDy=0;" edge="1" parent="1" source="9Q65-ZkpS5YPYeOt8dSL-14" target="9Q65-ZkpS5YPYeOt8dSL-43">
          <mxGeometry width="50" height="50" relative="1" as="geometry">
            <mxPoint x="323" y="550" as="sourcePoint" />
            <mxPoint x="364" y="570" as="targetPoint" />
          </mxGeometry>
        </mxCell>
        <mxCell id="9Q65-ZkpS5YPYeOt8dSL-74" value="" style="endArrow=classic;html=1;rounded=0;exitX=0.5;exitY=0;exitDx=0;exitDy=0;entryX=0.5;entryY=1;entryDx=0;entryDy=0;" edge="1" parent="1" source="9Q65-ZkpS5YPYeOt8dSL-14" target="9Q65-ZkpS5YPYeOt8dSL-36">
          <mxGeometry width="50" height="50" relative="1" as="geometry">
            <mxPoint x="333" y="560" as="sourcePoint" />
            <mxPoint x="374" y="580" as="targetPoint" />
          </mxGeometry>
        </mxCell>
        <mxCell id="9Q65-ZkpS5YPYeOt8dSL-75" value="" style="rounded=1;whiteSpace=wrap;html=1;fillColor=#f5fff5;strokeColor=#82b366;" vertex="1" parent="1">
          <mxGeometry x="510" y="450" width="375" height="230" as="geometry" />
        </mxCell>
        <mxCell id="9Q65-ZkpS5YPYeOt8dSL-76" value="&lt;b&gt;&lt;font style=&quot;font-size: 14px;&quot;&gt;Worker Node 2&lt;/font&gt;&lt;/b&gt;" style="text;html=1;align=center;verticalAlign=middle;whiteSpace=wrap;rounded=0;" vertex="1" parent="1">
          <mxGeometry x="745" y="460" width="120" height="30" as="geometry" />
        </mxCell>
        <mxCell id="9Q65-ZkpS5YPYeOt8dSL-77" value="&lt;b&gt;Kubelet&lt;/b&gt;" style="rounded=1;whiteSpace=wrap;html=1;" vertex="1" parent="1">
          <mxGeometry x="657.5" y="460" width="80" height="40" as="geometry" />
        </mxCell>
        <mxCell id="9Q65-ZkpS5YPYeOt8dSL-78" value="" style="rounded=1;whiteSpace=wrap;html=1;" vertex="1" parent="1">
          <mxGeometry x="705" y="600" width="160" height="70" as="geometry" />
        </mxCell>
        <mxCell id="9Q65-ZkpS5YPYeOt8dSL-79" value="&lt;b&gt;Services&lt;/b&gt;" style="text;html=1;align=center;verticalAlign=middle;whiteSpace=wrap;rounded=0;" vertex="1" parent="1">
          <mxGeometry x="805" y="600" width="60" height="30" as="geometry" />
        </mxCell>
        <mxCell id="9Q65-ZkpS5YPYeOt8dSL-80" value="&lt;b&gt;kube-proxy&lt;/b&gt;" style="rounded=1;whiteSpace=wrap;html=1;" vertex="1" parent="1">
          <mxGeometry x="715" y="630" width="140" height="30" as="geometry" />
        </mxCell>
        <mxCell id="9Q65-ZkpS5YPYeOt8dSL-81" value="" style="group" vertex="1" connectable="0" parent="1">
          <mxGeometry x="525" y="520" width="130" height="60" as="geometry" />
        </mxCell>
        <mxCell id="9Q65-ZkpS5YPYeOt8dSL-82" value="" style="rounded=1;whiteSpace=wrap;html=1;" vertex="1" parent="9Q65-ZkpS5YPYeOt8dSL-81">
          <mxGeometry width="120" height="60" as="geometry" />
        </mxCell>
        <mxCell id="9Q65-ZkpS5YPYeOt8dSL-83" value="&lt;b&gt;Pod&lt;/b&gt;" style="text;html=1;align=center;verticalAlign=middle;whiteSpace=wrap;rounded=0;" vertex="1" parent="9Q65-ZkpS5YPYeOt8dSL-81">
          <mxGeometry x="70" width="60" height="30" as="geometry" />
        </mxCell>
        <mxCell id="9Q65-ZkpS5YPYeOt8dSL-84" value="" style="shape=image;imageAspect=0;aspect=fixed;verticalLabelPosition=bottom;verticalAlign=top;image=https://external-content.duckduckgo.com/iu/?u=https%3A%2F%2Ftse3.mm.bing.net%2Fth%3Fid%3DOIP.LyndAzyZU5fdUKOWdkpSxwAAAA%26pid%3DApi&amp;f=1&amp;ipt=9c02ed5467b465faba6fe92957dbc75421283cd3b5f137815d17ff7c9f592d1e&amp;ipo=images;" vertex="1" parent="9Q65-ZkpS5YPYeOt8dSL-81">
          <mxGeometry x="14" y="20" width="30" height="30" as="geometry" />
        </mxCell>
        <mxCell id="9Q65-ZkpS5YPYeOt8dSL-85" value="" style="shape=image;imageAspect=0;aspect=fixed;verticalLabelPosition=bottom;verticalAlign=top;image=https://external-content.duckduckgo.com/iu/?u=https%3A%2F%2Ftse3.mm.bing.net%2Fth%3Fid%3DOIP.LyndAzyZU5fdUKOWdkpSxwAAAA%26pid%3DApi&amp;f=1&amp;ipt=9c02ed5467b465faba6fe92957dbc75421283cd3b5f137815d17ff7c9f592d1e&amp;ipo=images;" vertex="1" parent="9Q65-ZkpS5YPYeOt8dSL-81">
          <mxGeometry x="80" y="20" width="30" height="30" as="geometry" />
        </mxCell>
        <mxCell id="9Q65-ZkpS5YPYeOt8dSL-86" value="&lt;b&gt;...&lt;/b&gt;" style="text;html=1;align=center;verticalAlign=middle;whiteSpace=wrap;rounded=0;" vertex="1" parent="9Q65-ZkpS5YPYeOt8dSL-81">
          <mxGeometry x="40" y="20" width="40" height="30" as="geometry" />
        </mxCell>
        <mxCell id="9Q65-ZkpS5YPYeOt8dSL-87" value="" style="group" vertex="1" connectable="0" parent="1">
          <mxGeometry x="745" y="520" width="130" height="60" as="geometry" />
        </mxCell>
        <mxCell id="9Q65-ZkpS5YPYeOt8dSL-88" value="" style="rounded=1;whiteSpace=wrap;html=1;" vertex="1" parent="9Q65-ZkpS5YPYeOt8dSL-87">
          <mxGeometry width="120" height="60" as="geometry" />
        </mxCell>
        <mxCell id="9Q65-ZkpS5YPYeOt8dSL-89" value="&lt;b&gt;Pod&lt;/b&gt;" style="text;html=1;align=center;verticalAlign=middle;whiteSpace=wrap;rounded=0;" vertex="1" parent="9Q65-ZkpS5YPYeOt8dSL-87">
          <mxGeometry x="70" width="60" height="30" as="geometry" />
        </mxCell>
        <mxCell id="9Q65-ZkpS5YPYeOt8dSL-90" value="" style="shape=image;imageAspect=0;aspect=fixed;verticalLabelPosition=bottom;verticalAlign=top;image=https://external-content.duckduckgo.com/iu/?u=https%3A%2F%2Ftse3.mm.bing.net%2Fth%3Fid%3DOIP.LyndAzyZU5fdUKOWdkpSxwAAAA%26pid%3DApi&amp;f=1&amp;ipt=9c02ed5467b465faba6fe92957dbc75421283cd3b5f137815d17ff7c9f592d1e&amp;ipo=images;" vertex="1" parent="9Q65-ZkpS5YPYeOt8dSL-87">
          <mxGeometry x="14" y="20" width="30" height="30" as="geometry" />
        </mxCell>
        <mxCell id="9Q65-ZkpS5YPYeOt8dSL-91" value="" style="shape=image;imageAspect=0;aspect=fixed;verticalLabelPosition=bottom;verticalAlign=top;image=https://external-content.duckduckgo.com/iu/?u=https%3A%2F%2Ftse3.mm.bing.net%2Fth%3Fid%3DOIP.LyndAzyZU5fdUKOWdkpSxwAAAA%26pid%3DApi&amp;f=1&amp;ipt=9c02ed5467b465faba6fe92957dbc75421283cd3b5f137815d17ff7c9f592d1e&amp;ipo=images;" vertex="1" parent="9Q65-ZkpS5YPYeOt8dSL-87">
          <mxGeometry x="80" y="20" width="30" height="30" as="geometry" />
        </mxCell>
        <mxCell id="9Q65-ZkpS5YPYeOt8dSL-92" value="&lt;b&gt;...&lt;/b&gt;" style="text;html=1;align=center;verticalAlign=middle;whiteSpace=wrap;rounded=0;" vertex="1" parent="9Q65-ZkpS5YPYeOt8dSL-87">
          <mxGeometry x="40" y="20" width="40" height="30" as="geometry" />
        </mxCell>
        <mxCell id="9Q65-ZkpS5YPYeOt8dSL-93" value="" style="group" vertex="1" connectable="0" parent="1">
          <mxGeometry x="715" y="520" width="130" height="60" as="geometry" />
        </mxCell>
        <mxCell id="9Q65-ZkpS5YPYeOt8dSL-94" value="" style="rounded=1;whiteSpace=wrap;html=1;" vertex="1" parent="9Q65-ZkpS5YPYeOt8dSL-93">
          <mxGeometry width="120" height="60" as="geometry" />
        </mxCell>
        <mxCell id="9Q65-ZkpS5YPYeOt8dSL-95" value="&lt;b&gt;Pod&lt;/b&gt;" style="text;html=1;align=center;verticalAlign=middle;whiteSpace=wrap;rounded=0;" vertex="1" parent="9Q65-ZkpS5YPYeOt8dSL-93">
          <mxGeometry x="70" width="60" height="30" as="geometry" />
        </mxCell>
        <mxCell id="9Q65-ZkpS5YPYeOt8dSL-96" value="" style="shape=image;imageAspect=0;aspect=fixed;verticalLabelPosition=bottom;verticalAlign=top;image=https://external-content.duckduckgo.com/iu/?u=https%3A%2F%2Ftse3.mm.bing.net%2Fth%3Fid%3DOIP.LyndAzyZU5fdUKOWdkpSxwAAAA%26pid%3DApi&amp;f=1&amp;ipt=9c02ed5467b465faba6fe92957dbc75421283cd3b5f137815d17ff7c9f592d1e&amp;ipo=images;" vertex="1" parent="9Q65-ZkpS5YPYeOt8dSL-93">
          <mxGeometry x="14" y="20" width="30" height="30" as="geometry" />
        </mxCell>
        <mxCell id="9Q65-ZkpS5YPYeOt8dSL-97" value="" style="shape=image;imageAspect=0;aspect=fixed;verticalLabelPosition=bottom;verticalAlign=top;image=https://external-content.duckduckgo.com/iu/?u=https%3A%2F%2Ftse3.mm.bing.net%2Fth%3Fid%3DOIP.LyndAzyZU5fdUKOWdkpSxwAAAA%26pid%3DApi&amp;f=1&amp;ipt=9c02ed5467b465faba6fe92957dbc75421283cd3b5f137815d17ff7c9f592d1e&amp;ipo=images;" vertex="1" parent="9Q65-ZkpS5YPYeOt8dSL-93">
          <mxGeometry x="80" y="20" width="30" height="30" as="geometry" />
        </mxCell>
        <mxCell id="9Q65-ZkpS5YPYeOt8dSL-98" value="&lt;b&gt;...&lt;/b&gt;" style="text;html=1;align=center;verticalAlign=middle;whiteSpace=wrap;rounded=0;" vertex="1" parent="9Q65-ZkpS5YPYeOt8dSL-93">
          <mxGeometry x="40" y="20" width="40" height="30" as="geometry" />
        </mxCell>
        <mxCell id="9Q65-ZkpS5YPYeOt8dSL-99" value="" style="group" vertex="1" connectable="0" parent="9Q65-ZkpS5YPYeOt8dSL-93">
          <mxGeometry x="-36" width="130" height="60" as="geometry" />
        </mxCell>
        <mxCell id="9Q65-ZkpS5YPYeOt8dSL-100" value="" style="rounded=1;whiteSpace=wrap;html=1;" vertex="1" parent="9Q65-ZkpS5YPYeOt8dSL-99">
          <mxGeometry width="120" height="60" as="geometry" />
        </mxCell>
        <mxCell id="9Q65-ZkpS5YPYeOt8dSL-101" value="&lt;b&gt;Pod&lt;/b&gt;" style="text;html=1;align=center;verticalAlign=middle;whiteSpace=wrap;rounded=0;" vertex="1" parent="9Q65-ZkpS5YPYeOt8dSL-99">
          <mxGeometry x="70" width="60" height="30" as="geometry" />
        </mxCell>
        <mxCell id="9Q65-ZkpS5YPYeOt8dSL-102" value="" style="shape=image;imageAspect=0;aspect=fixed;verticalLabelPosition=bottom;verticalAlign=top;image=https://external-content.duckduckgo.com/iu/?u=https%3A%2F%2Ftse3.mm.bing.net%2Fth%3Fid%3DOIP.LyndAzyZU5fdUKOWdkpSxwAAAA%26pid%3DApi&amp;f=1&amp;ipt=9c02ed5467b465faba6fe92957dbc75421283cd3b5f137815d17ff7c9f592d1e&amp;ipo=images;" vertex="1" parent="9Q65-ZkpS5YPYeOt8dSL-99">
          <mxGeometry x="14" y="20" width="30" height="30" as="geometry" />
        </mxCell>
        <mxCell id="9Q65-ZkpS5YPYeOt8dSL-103" value="" style="shape=image;imageAspect=0;aspect=fixed;verticalLabelPosition=bottom;verticalAlign=top;image=https://external-content.duckduckgo.com/iu/?u=https%3A%2F%2Ftse3.mm.bing.net%2Fth%3Fid%3DOIP.LyndAzyZU5fdUKOWdkpSxwAAAA%26pid%3DApi&amp;f=1&amp;ipt=9c02ed5467b465faba6fe92957dbc75421283cd3b5f137815d17ff7c9f592d1e&amp;ipo=images;" vertex="1" parent="9Q65-ZkpS5YPYeOt8dSL-99">
          <mxGeometry x="80" y="20" width="30" height="30" as="geometry" />
        </mxCell>
        <mxCell id="9Q65-ZkpS5YPYeOt8dSL-104" value="&lt;b&gt;...&lt;/b&gt;" style="text;html=1;align=center;verticalAlign=middle;whiteSpace=wrap;rounded=0;" vertex="1" parent="9Q65-ZkpS5YPYeOt8dSL-99">
          <mxGeometry x="40" y="20" width="40" height="30" as="geometry" />
        </mxCell>
        <mxCell id="9Q65-ZkpS5YPYeOt8dSL-105" value="&lt;b&gt;...&lt;/b&gt;" style="text;html=1;align=center;verticalAlign=middle;whiteSpace=wrap;rounded=0;" vertex="1" parent="9Q65-ZkpS5YPYeOt8dSL-99">
          <mxGeometry x="-46" y="20" width="60" height="30" as="geometry" />
        </mxCell>
        <mxCell id="9Q65-ZkpS5YPYeOt8dSL-106" value="&lt;b&gt;Volume&lt;/b&gt;" style="rounded=1;whiteSpace=wrap;html=1;" vertex="1" parent="1">
          <mxGeometry x="555" y="612.5" width="110" height="45" as="geometry" />
        </mxCell>
        <mxCell id="9Q65-ZkpS5YPYeOt8dSL-107" value="" style="endArrow=none;html=1;rounded=0;exitX=0.5;exitY=0;exitDx=0;exitDy=0;" edge="1" parent="1" source="9Q65-ZkpS5YPYeOt8dSL-106">
          <mxGeometry width="50" height="50" relative="1" as="geometry">
            <mxPoint x="905" y="480" as="sourcePoint" />
            <mxPoint x="585" y="580" as="targetPoint" />
          </mxGeometry>
        </mxCell>
        <mxCell id="9Q65-ZkpS5YPYeOt8dSL-108" value="" style="endArrow=none;html=1;rounded=0;exitX=0.5;exitY=0;exitDx=0;exitDy=0;entryX=0.5;entryY=1;entryDx=0;entryDy=0;" edge="1" parent="1" source="9Q65-ZkpS5YPYeOt8dSL-106" target="9Q65-ZkpS5YPYeOt8dSL-100">
          <mxGeometry width="50" height="50" relative="1" as="geometry">
            <mxPoint x="620" y="623" as="sourcePoint" />
            <mxPoint x="595" y="590" as="targetPoint" />
          </mxGeometry>
        </mxCell>
        <mxCell id="9Q65-ZkpS5YPYeOt8dSL-109" value="" style="endArrow=none;html=1;rounded=0;entryX=0.75;entryY=1;entryDx=0;entryDy=0;exitX=0.5;exitY=0;exitDx=0;exitDy=0;" edge="1" parent="1" source="9Q65-ZkpS5YPYeOt8dSL-106" target="9Q65-ZkpS5YPYeOt8dSL-100">
          <mxGeometry width="50" height="50" relative="1" as="geometry">
            <mxPoint x="905" y="480" as="sourcePoint" />
            <mxPoint x="955" y="430" as="targetPoint" />
          </mxGeometry>
        </mxCell>
        <mxCell id="9Q65-ZkpS5YPYeOt8dSL-110" value="" style="endArrow=classic;html=1;rounded=0;exitX=0.5;exitY=1;exitDx=0;exitDy=0;entryX=0;entryY=0;entryDx=0;entryDy=0;strokeColor=default;" edge="1" parent="1" source="9Q65-ZkpS5YPYeOt8dSL-77" target="9Q65-ZkpS5YPYeOt8dSL-83">
          <mxGeometry width="50" height="50" relative="1" as="geometry">
            <mxPoint x="725" y="440" as="sourcePoint" />
            <mxPoint x="775" y="390" as="targetPoint" />
          </mxGeometry>
        </mxCell>
        <mxCell id="9Q65-ZkpS5YPYeOt8dSL-111" value="" style="endArrow=classic;html=1;rounded=0;exitX=0.5;exitY=1;exitDx=0;exitDy=0;entryX=0.5;entryY=0;entryDx=0;entryDy=0;strokeColor=default;" edge="1" parent="1" source="9Q65-ZkpS5YPYeOt8dSL-77" target="9Q65-ZkpS5YPYeOt8dSL-100">
          <mxGeometry width="50" height="50" relative="1" as="geometry">
            <mxPoint x="708" y="510" as="sourcePoint" />
            <mxPoint x="605" y="530" as="targetPoint" />
          </mxGeometry>
        </mxCell>
        <mxCell id="9Q65-ZkpS5YPYeOt8dSL-112" value="" style="endArrow=classic;html=1;rounded=0;exitX=0.5;exitY=1;exitDx=0;exitDy=0;entryX=0.75;entryY=0;entryDx=0;entryDy=0;strokeColor=default;" edge="1" parent="1" source="9Q65-ZkpS5YPYeOt8dSL-77" target="9Q65-ZkpS5YPYeOt8dSL-101">
          <mxGeometry width="50" height="50" relative="1" as="geometry">
            <mxPoint x="795" y="400" as="sourcePoint" />
            <mxPoint x="836" y="420" as="targetPoint" />
          </mxGeometry>
        </mxCell>
        <mxCell id="9Q65-ZkpS5YPYeOt8dSL-113" value="" style="endArrow=classic;html=1;rounded=0;exitX=0.5;exitY=1;exitDx=0;exitDy=0;entryX=0.75;entryY=0;entryDx=0;entryDy=0;strokeColor=default;" edge="1" parent="1" source="9Q65-ZkpS5YPYeOt8dSL-77" target="9Q65-ZkpS5YPYeOt8dSL-95">
          <mxGeometry width="50" height="50" relative="1" as="geometry">
            <mxPoint x="805" y="400" as="sourcePoint" />
            <mxPoint x="846" y="420" as="targetPoint" />
          </mxGeometry>
        </mxCell>
        <mxCell id="9Q65-ZkpS5YPYeOt8dSL-114" value="" style="endArrow=classic;html=1;rounded=0;exitX=0.5;exitY=0;exitDx=0;exitDy=0;entryX=0.5;entryY=1;entryDx=0;entryDy=0;" edge="1" parent="1" source="9Q65-ZkpS5YPYeOt8dSL-78" target="9Q65-ZkpS5YPYeOt8dSL-82">
          <mxGeometry width="50" height="50" relative="1" as="geometry">
            <mxPoint x="728" y="530" as="sourcePoint" />
            <mxPoint x="769" y="550" as="targetPoint" />
          </mxGeometry>
        </mxCell>
        <mxCell id="9Q65-ZkpS5YPYeOt8dSL-115" value="" style="endArrow=classic;html=1;rounded=0;exitX=0.5;exitY=0;exitDx=0;exitDy=0;entryX=0.5;entryY=1;entryDx=0;entryDy=0;" edge="1" parent="1" source="9Q65-ZkpS5YPYeOt8dSL-78" target="9Q65-ZkpS5YPYeOt8dSL-100">
          <mxGeometry width="50" height="50" relative="1" as="geometry">
            <mxPoint x="738" y="540" as="sourcePoint" />
            <mxPoint x="785" y="600" as="targetPoint" />
          </mxGeometry>
        </mxCell>
        <mxCell id="9Q65-ZkpS5YPYeOt8dSL-116" value="" style="endArrow=classic;html=1;rounded=0;exitX=0.5;exitY=0;exitDx=0;exitDy=0;entryX=0.5;entryY=1;entryDx=0;entryDy=0;" edge="1" parent="1" source="9Q65-ZkpS5YPYeOt8dSL-78" target="9Q65-ZkpS5YPYeOt8dSL-94">
          <mxGeometry width="50" height="50" relative="1" as="geometry">
            <mxPoint x="748" y="550" as="sourcePoint" />
            <mxPoint x="789" y="570" as="targetPoint" />
          </mxGeometry>
        </mxCell>
        <mxCell id="9Q65-ZkpS5YPYeOt8dSL-117" value="" style="endArrow=classic;html=1;rounded=0;exitX=0.5;exitY=0;exitDx=0;exitDy=0;entryX=0.5;entryY=1;entryDx=0;entryDy=0;" edge="1" parent="1" source="9Q65-ZkpS5YPYeOt8dSL-78" target="9Q65-ZkpS5YPYeOt8dSL-88">
          <mxGeometry width="50" height="50" relative="1" as="geometry">
            <mxPoint x="758" y="560" as="sourcePoint" />
            <mxPoint x="799" y="580" as="targetPoint" />
          </mxGeometry>
        </mxCell>
        <mxCell id="9Q65-ZkpS5YPYeOt8dSL-119" style="edgeStyle=orthogonalEdgeStyle;rounded=0;orthogonalLoop=1;jettySize=auto;html=1;exitX=0.5;exitY=0;exitDx=0;exitDy=0;entryX=0.5;entryY=1;entryDx=0;entryDy=0;strokeWidth=2;dashed=1;" edge="1" parent="1" source="9Q65-ZkpS5YPYeOt8dSL-118" target="9Q65-ZkpS5YPYeOt8dSL-14">
          <mxGeometry relative="1" as="geometry" />
        </mxCell>
        <mxCell id="9Q65-ZkpS5YPYeOt8dSL-120" style="edgeStyle=orthogonalEdgeStyle;rounded=0;orthogonalLoop=1;jettySize=auto;html=1;entryX=0.5;entryY=1;entryDx=0;entryDy=0;exitX=0.5;exitY=0;exitDx=0;exitDy=0;strokeWidth=2;dashed=1;" edge="1" parent="1" source="9Q65-ZkpS5YPYeOt8dSL-118">
          <mxGeometry relative="1" as="geometry">
            <mxPoint x="547.5" y="780" as="sourcePoint" />
            <mxPoint x="790" y="670" as="targetPoint" />
            <Array as="points">
              <mxPoint x="485" y="700" />
              <mxPoint x="791" y="700" />
            </Array>
          </mxGeometry>
        </mxCell>
        <mxCell id="9Q65-ZkpS5YPYeOt8dSL-118" value="&lt;b&gt;&lt;font style=&quot;font-size: 14px;&quot;&gt;End User&lt;/font&gt;&lt;/b&gt;&lt;div&gt;&lt;font style=&quot;font-size: 12px;&quot;&gt;The Internet&lt;/font&gt;&lt;/div&gt;" style="rounded=1;whiteSpace=wrap;html=1;" vertex="1" parent="1">
          <mxGeometry x="427.5" y="760" width="115" height="50" as="geometry" />
        </mxCell>
        <mxCell id="9Q65-ZkpS5YPYeOt8dSL-130" style="rounded=0;orthogonalLoop=1;jettySize=auto;html=1;exitX=1;exitY=0.5;exitDx=0;exitDy=0;entryX=0;entryY=0.5;entryDx=0;entryDy=0;startArrow=none;startFill=0;endArrow=none;endFill=0;" edge="1" parent="1" source="9Q65-ZkpS5YPYeOt8dSL-121" target="9Q65-ZkpS5YPYeOt8dSL-124">
          <mxGeometry relative="1" as="geometry" />
        </mxCell>
        <mxCell id="9Q65-ZkpS5YPYeOt8dSL-132" style="edgeStyle=orthogonalEdgeStyle;rounded=0;orthogonalLoop=1;jettySize=auto;html=1;exitX=0.5;exitY=1;exitDx=0;exitDy=0;entryX=0.5;entryY=0;entryDx=0;entryDy=0;strokeWidth=2;dashed=1;" edge="1" parent="1" source="9Q65-ZkpS5YPYeOt8dSL-121" target="9Q65-ZkpS5YPYeOt8dSL-13">
          <mxGeometry relative="1" as="geometry" />
        </mxCell>
        <mxCell id="9Q65-ZkpS5YPYeOt8dSL-133" style="edgeStyle=orthogonalEdgeStyle;rounded=0;orthogonalLoop=1;jettySize=auto;html=1;exitX=0.5;exitY=1;exitDx=0;exitDy=0;entryX=0.5;entryY=0;entryDx=0;entryDy=0;strokeWidth=2;dashed=1;" edge="1" parent="1" source="9Q65-ZkpS5YPYeOt8dSL-121" target="9Q65-ZkpS5YPYeOt8dSL-77">
          <mxGeometry relative="1" as="geometry" />
        </mxCell>
        <mxCell id="9Q65-ZkpS5YPYeOt8dSL-134" style="edgeStyle=orthogonalEdgeStyle;rounded=0;orthogonalLoop=1;jettySize=auto;html=1;entryX=1;entryY=0.5;entryDx=0;entryDy=0;strokeWidth=2;dashed=1;" edge="1" parent="1" source="9Q65-ZkpS5YPYeOt8dSL-121" target="9Q65-ZkpS5YPYeOt8dSL-14">
          <mxGeometry relative="1" as="geometry" />
        </mxCell>
        <mxCell id="9Q65-ZkpS5YPYeOt8dSL-136" style="edgeStyle=orthogonalEdgeStyle;rounded=0;orthogonalLoop=1;jettySize=auto;html=1;entryX=1;entryY=0.5;entryDx=0;entryDy=0;exitX=0.5;exitY=1;exitDx=0;exitDy=0;strokeWidth=2;dashed=1;" edge="1" parent="1" source="9Q65-ZkpS5YPYeOt8dSL-121" target="9Q65-ZkpS5YPYeOt8dSL-78">
          <mxGeometry relative="1" as="geometry">
            <Array as="points">
              <mxPoint x="485" y="430" />
              <mxPoint x="900" y="430" />
              <mxPoint x="900" y="635" />
            </Array>
          </mxGeometry>
        </mxCell>
        <mxCell id="9Q65-ZkpS5YPYeOt8dSL-121" value="&lt;b&gt;&lt;font style=&quot;font-size: 14px;&quot;&gt;API Server&lt;/font&gt;&lt;/b&gt;" style="rounded=1;whiteSpace=wrap;html=1;" vertex="1" parent="1">
          <mxGeometry x="425" y="290" width="120" height="60" as="geometry" />
        </mxCell>
        <mxCell id="9Q65-ZkpS5YPYeOt8dSL-128" style="rounded=0;orthogonalLoop=1;jettySize=auto;html=1;exitX=1;exitY=0.5;exitDx=0;exitDy=0;entryX=0;entryY=0.5;entryDx=0;entryDy=0;strokeColor=default;endArrow=none;endFill=0;" edge="1" parent="1" source="9Q65-ZkpS5YPYeOt8dSL-122" target="9Q65-ZkpS5YPYeOt8dSL-121">
          <mxGeometry relative="1" as="geometry" />
        </mxCell>
        <mxCell id="9Q65-ZkpS5YPYeOt8dSL-122" value="&lt;b&gt;Controller&lt;/b&gt;" style="rounded=1;whiteSpace=wrap;html=1;" vertex="1" parent="1">
          <mxGeometry x="260" y="250" width="120" height="60" as="geometry" />
        </mxCell>
        <mxCell id="9Q65-ZkpS5YPYeOt8dSL-129" style="rounded=0;orthogonalLoop=1;jettySize=auto;html=1;exitX=1;exitY=0.5;exitDx=0;exitDy=0;entryX=0;entryY=0.5;entryDx=0;entryDy=0;startArrow=none;startFill=0;endArrow=none;endFill=0;" edge="1" parent="1" source="9Q65-ZkpS5YPYeOt8dSL-123" target="9Q65-ZkpS5YPYeOt8dSL-121">
          <mxGeometry relative="1" as="geometry" />
        </mxCell>
        <mxCell id="9Q65-ZkpS5YPYeOt8dSL-123" value="&lt;b&gt;Scheduler&lt;/b&gt;" style="rounded=1;whiteSpace=wrap;html=1;" vertex="1" parent="1">
          <mxGeometry x="260" y="330" width="120" height="60" as="geometry" />
        </mxCell>
        <mxCell id="9Q65-ZkpS5YPYeOt8dSL-124" value="&lt;b&gt;etcd&lt;/b&gt;" style="rounded=1;whiteSpace=wrap;html=1;" vertex="1" parent="1">
          <mxGeometry x="585" y="250" width="120" height="60" as="geometry" />
        </mxCell>
        <mxCell id="9Q65-ZkpS5YPYeOt8dSL-131" style="rounded=0;orthogonalLoop=1;jettySize=auto;html=1;exitX=0;exitY=0.5;exitDx=0;exitDy=0;startArrow=none;startFill=0;endArrow=none;endFill=0;entryX=1;entryY=0.5;entryDx=0;entryDy=0;" edge="1" parent="1" source="9Q65-ZkpS5YPYeOt8dSL-125" target="9Q65-ZkpS5YPYeOt8dSL-121">
          <mxGeometry relative="1" as="geometry">
            <mxPoint x="550" y="320" as="targetPoint" />
          </mxGeometry>
        </mxCell>
        <mxCell id="9Q65-ZkpS5YPYeOt8dSL-125" value="..." style="rounded=1;whiteSpace=wrap;html=1;" vertex="1" parent="1">
          <mxGeometry x="585" y="330" width="120" height="60" as="geometry" />
        </mxCell>
        <mxCell id="9Q65-ZkpS5YPYeOt8dSL-137" value="&lt;b&gt;&lt;font style=&quot;font-size: 14px;&quot;&gt;HTTP&lt;/font&gt;&lt;/b&gt;" style="text;html=1;align=center;verticalAlign=middle;whiteSpace=wrap;rounded=0;" vertex="1" parent="1">
          <mxGeometry x="482.5" y="730" width="60" height="30" as="geometry" />
        </mxCell>
        <mxCell id="9Q65-ZkpS5YPYeOt8dSL-139" style="edgeStyle=orthogonalEdgeStyle;rounded=0;orthogonalLoop=1;jettySize=auto;html=1;entryX=0.5;entryY=0;entryDx=0;entryDy=0;strokeWidth=2;dashed=1;" edge="1" parent="1" source="9Q65-ZkpS5YPYeOt8dSL-138" target="9Q65-ZkpS5YPYeOt8dSL-121">
          <mxGeometry relative="1" as="geometry" />
        </mxCell>
        <mxCell id="9Q65-ZkpS5YPYeOt8dSL-138" value="&lt;b&gt;&lt;font style=&quot;font-size: 14px;&quot;&gt;Developer&lt;/font&gt;&lt;/b&gt;" style="rounded=1;whiteSpace=wrap;html=1;" vertex="1" parent="1">
          <mxGeometry x="425" y="40" width="120" height="60" as="geometry" />
        </mxCell>
        <mxCell id="9Q65-ZkpS5YPYeOt8dSL-140" value="&lt;b&gt;&lt;font style=&quot;font-size: 14px;&quot;&gt;kubectl&lt;/font&gt;&lt;/b&gt;" style="text;html=1;align=center;verticalAlign=middle;whiteSpace=wrap;rounded=0;" vertex="1" parent="1">
          <mxGeometry x="485" y="110" width="60" height="30" as="geometry" />
        </mxCell>
      </root>
    </mxGraphModel>
  </diagram>
</mxfile>
